<mxfile host="app.diagrams.net" modified="2022-06-30T13:45:32.134Z" agent="5.0 (Windows NT 10.0; WOW64) AppleWebKit/537.36 (KHTML, like Gecko) Chrome/103.0.0.0 Safari/537.36" etag="xpaHTK3RKPG1MSH57AW-" version="20.0.3" type="github">
  <diagram id="_txSlld9szPYJeapEkfD" name="Page-1">
    <mxGraphModel dx="1210" dy="535" grid="1" gridSize="10" guides="1" tooltips="1" connect="1" arrows="1" fold="1" page="1" pageScale="1" pageWidth="1169" pageHeight="827" math="0" shadow="0">
      <root>
        <mxCell id="0" />
        <mxCell id="1" parent="0" />
        <mxCell id="wPMNbxij68iX3NGG6mBY-1" value="" style="endArrow=none;html=1;rounded=0;fillColor=#e51400;strokeColor=#B20000;strokeWidth=4;startArrow=none;" edge="1" parent="1" source="wPMNbxij68iX3NGG6mBY-4">
          <mxGeometry width="50" height="50" relative="1" as="geometry">
            <mxPoint x="600" y="520" as="sourcePoint" />
            <mxPoint x="720" y="120" as="targetPoint" />
          </mxGeometry>
        </mxCell>
        <mxCell id="wPMNbxij68iX3NGG6mBY-4" value="" style="shape=cube;whiteSpace=wrap;html=1;boundedLbl=1;backgroundOutline=1;darkOpacity=0.05;darkOpacity2=0.1;size=10;direction=west;flipH=0;flipV=1;fillColor=default;strokeColor=#6c8ebf;gradientColor=#BC63FF;opacity=50;" vertex="1" parent="1">
          <mxGeometry x="620" y="190" width="120" height="90" as="geometry" />
        </mxCell>
        <mxCell id="wPMNbxij68iX3NGG6mBY-8" value="" style="endArrow=none;html=1;rounded=0;fillColor=#e51400;strokeColor=#B20000;strokeWidth=4;startArrow=none;" edge="1" parent="1">
          <mxGeometry width="50" height="50" relative="1" as="geometry">
            <mxPoint x="590" y="480" as="sourcePoint" />
            <mxPoint x="674.35" y="250" as="targetPoint" />
          </mxGeometry>
        </mxCell>
        <mxCell id="wPMNbxij68iX3NGG6mBY-9" value="" style="endArrow=none;html=1;rounded=0;strokeWidth=4;fillColor=#fff2cc;strokeColor=#d6b656;" edge="1" parent="1">
          <mxGeometry width="50" height="50" relative="1" as="geometry">
            <mxPoint x="580" y="460" as="sourcePoint" />
            <mxPoint x="673" y="249" as="targetPoint" />
          </mxGeometry>
        </mxCell>
        <mxCell id="wPMNbxij68iX3NGG6mBY-10" value="" style="endArrow=none;html=1;rounded=0;strokeWidth=4;fillColor=#fff2cc;strokeColor=#d6b656;" edge="1" parent="1">
          <mxGeometry width="50" height="50" relative="1" as="geometry">
            <mxPoint x="616" y="460" as="sourcePoint" />
            <mxPoint x="672" y="250" as="targetPoint" />
          </mxGeometry>
        </mxCell>
        <mxCell id="wPMNbxij68iX3NGG6mBY-21" value="" style="verticalLabelPosition=bottom;verticalAlign=top;html=1;shape=mxgraph.basic.cone;fillColor=default;gradientColor=#BC63FF;opacity=50;rotation=20;" vertex="1" parent="1">
          <mxGeometry x="566.67" y="236.88" width="120" height="285" as="geometry" />
        </mxCell>
        <mxCell id="wPMNbxij68iX3NGG6mBY-26" value="" style="verticalLabelPosition=bottom;verticalAlign=top;html=1;shape=mxgraph.basic.cone;fillColor=default;gradientColor=#BC63FF;opacity=50;rotation=20;" vertex="1" parent="1">
          <mxGeometry x="566.67" y="241.4" width="125.75" height="218.87" as="geometry" />
        </mxCell>
      </root>
    </mxGraphModel>
  </diagram>
</mxfile>
